<?xml version="1.0" encoding="UTF-8"?> <svg xmlns="http://www.w3.org/2000/svg" viewBox="0 0 180 43.3144"><g fill="#fff"><path d="m13.6963 14.2793c-.3506 0-.4395-.2388-.4395-.3228v-.7944c0-.085.0889-.3242.4395-.3242h.874c.5225-.5484 1.2793-1.062 1.2793-1.062l.1904-1.1099c0-.0049.0381-.2217.2139-.2217h.6162c.1914 0 .2129.2168.2129.2217l.1895 1.1099s.7568.5136 1.2793 1.062h.874c.3506 0 .4404.2392.4404.3242v.7944c0 .084-.0898.3228-.4404.3228h-.7901l.1123 1.4043 14.2666-1.3658v-14.3178l-33.0146 7.2383v7.1059l14.3809 1.3413.1142-1.4062z"></path><path d="m12.8662 21.6343c-.415 0-.4883-.2881-.4883-.4009v-.9922c0-.1109.0918-.3989.4883-.3989h1.1807l.1328-1.6568-14.1797 1.2681v17.3979l12.9053-2.8574.9961-12.3598z"></path><path d="m20.2383 19.8423c.459 0 .4892.288.4892.3989v.9922c0 .1128-.0302.4009-.4892.4009h-1.0078l1.5752 19.4965 12.2089 2.1836v-23.8359l-14.0644-1.293.1357 1.6568z"></path><path d="m60.667 15.21505h-4.9561v5.7231h4.5938c.4639 0 .8525-.2011 1.0576-.538v2.3134c-.2051-.3383-.5937-.5415-1.0576-.5415h-4.5938v6.3492c0 .4951.209.8779.6465 1.1484h-4.1064c.4404-.2705.6465-.6533.6465-1.1484v-13.3946c0-.4936-.2061-.853-.669-1.1445h10.708v2.4238c-.334-.7422-1.083-1.1909-2.2695-1.1909z"></path><path d="m68.4844 29.66965c.4658-.2705.6728-.6533.6728-1.1484v-13.3946c0-.4936-.207-.853-.6728-1.1225h4.1308c-.4404.2695-.6464.6289-.6464 1.1225v13.3946c0 .4951.206.8779.6464 1.1484z"></path><path d="m82.6289 30.02805c-1.0098 0-2.3506-.1797-3.3809-.4727v-2.4013c.6172 1.2822 1.8311 1.7754 3.3008 1.7754 2.1924 0 3.5362-1.1455 3.5362-2.7842 0-1.3701-1.1866-2.378-3.4561-3.6128-2.3506-1.2588-3.9756-2.6694-3.9756-4.7578 0-2.8511 2.503-4.0835 5.8828-4.0835 1.1084 0 2.3223.2441 3.2022.5581v2.1787c-.5166-.898-1.5742-1.6157-3.3037-1.6157-2.0655 0-3.3555.8965-3.3555 2.2675 0 1.3897 1.5996 2.2872 3.2764 3.252 2.8662 1.6602 4.3877 3.0078 4.3877 5.4756 0 2.2441-2.1416 4.2207-6.1143 4.2207z"></path><path d="m109.749 24.37225v4.5103c-1.289.582-3.4062 1.1455-5.7021 1.1455-5.3682 0-9.958-3.3887-9.958-8.1924 0-4.8467 4.5625-8.167 9.958-8.167 1.8808 0 3.6631.2666 5.2402.7842v2.4907c-.6719-1.4829-2.5566-2.1533-4.6191-2.1533-4.1309 0-7.3057 3.1631-7.3057 7.0454 0 3.8838 3.2266 7.0244 7.3057 7.0244.9511 0 1.7509-.1806 2.2695-.3135v-4.1743c0-.4941-.207-.8535-.6445-1.1445h4.1025c-.4394.291-.6465.6504-.6465 1.1445z"></path><path d="m122.3936 18.08955-2.8653 5.9688h5.7041zm6.916 11.5801c-.7989 0-1.5996-.4268-1.9366-1.1231l-1.5996-3.3671h-6.7841l-1.8604 3.8603c-.0264.0664-.0498.1582-.0498.2236 0 .1358.0498.292.207.4063h-2.2744c.3106-.2051.4932-.3818.6231-.6748l7.5341-15.7085 7.794 16.3833z"></path><path d="m149.7764 29.66965c-1.2657 0-2.1924-.541-2.9151-1.4385l-5.3955-6.8218h1.2119c1.8057 0 3.2784-1.3901 3.2784-3.1396 0-1.729-1.2911-3.1431-3.0977-3.1431h-3.1494v13.3946c0 .4951.207.8779.6465 1.1484h-4.1289c.4638-.2705.6709-.6533.6709-1.1484v-13.3946c0-.4936-.2071-.853-.6709-1.1225h7.2509c3.2012 0 5.6758 1.8637 5.6758 4.1303 0 1.8394-1.6494 3.3882-3.8681 3.8804l6.039 7.6548z"></path><path d="m161.7021 15.10375h-2.3759v13.4428h2.3759c4.0245 0 6.9141-2.8037 6.9141-6.7109 0-3.9258-2.6582-6.7319-6.9141-6.7319zm.2579 14.5659h-5.4209v-14.543c0-.4936-.2071-.853-.67-1.1445h6.0909c6.2939 0 9.8291 3.2983 9.8291 7.8535 0 4.5352-3.8692 7.834-9.8291 7.834z"></path><path d="m174.9707 14.50465v2.5102h-.4512v-2.5102h-1.0293v-.3814h2.5108v.3814z"></path><path d="m179.5439 17.01485v-2.3052c-.0205.0767-.0351.1343-.0459.1729-.0156.039-.0351.0937-.0673.166l-.8877 1.9663h-.3662l-.7959-1.8452c-.0371-.0806-.0635-.1436-.0762-.1895-.0127-.0473-.0293-.1098-.0401-.1914v2.2261h-.458v-2.8916h.586l.9375 2.1362c.0195.0435.0332.0782.0371.1016.0019.0254.0088.0669.0185.1279.0049-.0439.0147-.08.0225-.1059.001-.0259.0166-.0674.0381-.1236l.9736-2.1362h.5801v2.8916z"></path></g></svg> 