<svg width="30" height="31" viewBox="0 0 30 31" fill="none" xmlns="http://www.w3.org/2000/svg">
<path d="M7.5 10.1134C7.5 9.63242 7.66892 9.2356 8.00676 8.92295C8.34459 8.6103 8.78379 8.45398 9.32432 8.45398C9.85522 8.45398 10.2847 8.60789 10.6129 8.91574C10.9508 9.2332 11.1197 9.64685 11.1197 10.1567C11.1197 10.6185 10.9556 11.0033 10.6274 11.3111C10.2896 11.6286 9.84556 11.7873 9.29537 11.7873H9.28089C8.75 11.7873 8.32047 11.6286 7.99228 11.3111C7.66409 10.9937 7.5 10.5944 7.5 10.1134ZM7.68822 22.7397V13.1004H10.9025V22.7397H7.68822ZM12.6834 22.7397H15.8977V17.3573C15.8977 17.0206 15.9363 16.7608 16.0135 16.5781C16.1486 16.251 16.3538 15.9744 16.6289 15.7483C16.904 15.5223 17.249 15.4092 17.6641 15.4092C18.7452 15.4092 19.2857 16.1355 19.2857 17.5882V22.7397H22.5V17.213C22.5 15.7892 22.1622 14.7094 21.4865 13.9735C20.8108 13.2375 19.918 12.8696 18.8079 12.8696C17.5627 12.8696 16.5927 13.4035 15.8977 14.4713V14.5002H15.8832L15.8977 14.4713V13.1004H12.6834C12.7027 13.4083 12.7124 14.3655 12.7124 15.972C12.7124 17.5786 12.7027 19.8344 12.6834 22.7397Z" fill="#4A3AFF"/>
</svg>
