<svg width="30" height="31" viewBox="0 0 30 31" fill="none" xmlns="http://www.w3.org/2000/svg">
<path d="M17.5225 9.51454V9.51184H18.2259L18.4829 9.56317C18.6542 9.59649 18.8097 9.64016 18.9495 9.69419C19.0893 9.74821 19.2245 9.81125 19.3553 9.88328C19.486 9.95532 19.6046 10.0287 19.711 10.1034C19.8165 10.1773 19.9112 10.2556 19.9951 10.3385C20.078 10.4222 20.2074 10.4438 20.3832 10.4033C20.5591 10.3628 20.7484 10.3065 20.9513 10.2345C21.1542 10.1624 21.3548 10.0814 21.5532 9.99134C21.7516 9.90129 21.8724 9.84411 21.9157 9.8198C21.9581 9.7946 21.9806 9.78109 21.9833 9.77928L21.986 9.77523L21.9995 9.76847L22.0131 9.76172L22.0266 9.75497L22.0401 9.74821L22.0428 9.74416L22.0469 9.74146L22.051 9.73876L22.0537 9.73471L22.0672 9.73065L22.0807 9.72795L22.078 9.74821L22.0739 9.76847L22.0672 9.78873L22.0604 9.80899L22.0537 9.8225L22.0469 9.83601L22.0401 9.85627C22.0356 9.86978 22.0311 9.88778 22.0266 9.9103C22.0221 9.93281 21.9793 10.0229 21.8981 10.1804C21.817 10.338 21.7155 10.4979 21.5938 10.6599C21.472 10.822 21.3629 10.9445 21.2665 11.0273C21.1691 11.1111 21.1046 11.1696 21.073 11.2029C21.0415 11.2371 21.0032 11.2686 20.9581 11.2975L20.8904 11.342L20.8769 11.3488L20.8634 11.3555L20.8607 11.3596L20.8566 11.3623L20.8526 11.365L20.8499 11.3691L20.8363 11.3758L20.8228 11.3826L20.8201 11.3866L20.8161 11.3893L20.812 11.392L20.8093 11.3961L20.8066 11.4001L20.8025 11.4028L20.7985 11.4055L20.7958 11.4096H20.8634L21.2421 11.3285C21.4946 11.2745 21.7358 11.2092 21.9657 11.1327L22.3309 11.0111L22.3715 10.9976L22.3918 10.9909L22.4053 10.9841L22.4188 10.9774L22.4324 10.9706L22.4459 10.9638L22.4729 10.9598L22.5 10.9571V10.9841L22.4932 10.9868L22.4865 10.9909L22.4838 10.9949L22.4797 10.9976L22.4757 11.0003L22.4729 11.0044L22.4703 11.0084L22.4662 11.0111L22.4621 11.0138L22.4594 11.0179L22.4567 11.0219L22.4527 11.0246L22.4459 11.0381L22.4391 11.0516L22.4351 11.0543C22.4333 11.057 22.376 11.1336 22.2633 11.284C22.1506 11.4352 22.0897 11.5118 22.0807 11.5136C22.0717 11.5163 22.0591 11.5298 22.0428 11.5541C22.0275 11.5793 21.9319 11.6797 21.7561 11.8553C21.5803 12.0309 21.408 12.1871 21.2394 12.324C21.0699 12.4618 20.9842 12.6311 20.9824 12.8319C20.9797 13.0318 20.9694 13.2578 20.9513 13.5099C20.9333 13.7621 20.8995 14.0344 20.8499 14.3271C20.8003 14.6197 20.7236 14.9507 20.6199 15.3199C20.5162 15.689 20.39 16.0492 20.2412 16.4004C20.0924 16.7516 19.9369 17.0668 19.7746 17.3459C19.6123 17.6251 19.4635 17.8614 19.3282 18.055C19.193 18.2486 19.0555 18.431 18.9157 18.6021C18.7759 18.7732 18.5992 18.9659 18.3855 19.1802C18.1709 19.3936 18.0537 19.5106 18.0338 19.5313C18.0131 19.5512 17.9247 19.625 17.7687 19.7529C17.6136 19.8816 17.4468 20.0104 17.2683 20.1392C17.0906 20.267 16.9274 20.3737 16.7786 20.4593C16.6298 20.5448 16.4504 20.6425 16.2403 20.7524C16.0311 20.8631 15.8048 20.9658 15.5613 21.0603C15.3179 21.1549 15.0609 21.2427 14.7904 21.3237C14.5198 21.4048 14.2583 21.4678 14.0059 21.5128C13.7534 21.5578 13.4671 21.5961 13.147 21.6276L12.6668 21.6749V21.6817H11.7876V21.6749L11.6727 21.6681C11.596 21.6636 11.5329 21.6591 11.4833 21.6546C11.4337 21.6501 11.2466 21.6254 10.922 21.5804C10.5974 21.5353 10.3427 21.4903 10.1578 21.4453C9.97296 21.4003 9.69793 21.3147 9.33273 21.1886C8.96754 21.0626 8.65509 20.9352 8.3954 20.8064C8.13661 20.6785 7.97431 20.5975 7.90848 20.5633C7.84355 20.53 7.77051 20.4885 7.68936 20.439L7.56763 20.3647L7.56494 20.3607L7.56087 20.358L7.55681 20.3553L7.5541 20.3512L7.54058 20.3445L7.52705 20.3377L7.52436 20.3337L7.52029 20.331L7.51623 20.3283L7.51353 20.3242L7.51083 20.3201L7.50676 20.3174H7.5V20.2904L7.51353 20.2931L7.52705 20.2972L7.58792 20.3039C7.62849 20.3084 7.73896 20.3152 7.9193 20.3242C8.09965 20.3332 8.29125 20.3332 8.49414 20.3242C8.69702 20.3152 8.90443 20.2949 9.11632 20.2634C9.32823 20.2319 9.57845 20.1779 9.867 20.1013C10.1556 20.0248 10.4207 19.9338 10.6623 19.8285C10.9031 19.7222 11.0744 19.643 11.1763 19.5908C11.2773 19.5394 11.4315 19.444 11.6389 19.3044L11.95 19.0951L11.9527 19.091L11.9567 19.0883L11.9608 19.0856L11.9635 19.0816L11.9662 19.0775L11.9702 19.0748L11.9743 19.0721L11.977 19.068L11.9905 19.064L12.0041 19.0613L12.0068 19.0478L12.0108 19.0343L12.0149 19.0316L12.0176 19.0275L11.9094 19.0208C11.8372 19.0163 11.7674 19.0118 11.6997 19.0073C11.6321 19.0028 11.5262 18.9825 11.3819 18.9465C11.2376 18.9105 11.0821 18.8564 10.9152 18.7844C10.7484 18.7124 10.5861 18.6268 10.4283 18.5278C10.2705 18.4287 10.1564 18.3463 10.0861 18.2806C10.0167 18.2157 9.92651 18.1239 9.8156 18.005C9.7056 17.8853 9.61001 17.7624 9.52885 17.6363C9.4477 17.5102 9.37016 17.3648 9.29623 17.2L9.18395 16.9542L9.17719 16.9339L9.17042 16.9137L9.16637 16.9002L9.16366 16.8867L9.18395 16.8894L9.20424 16.8934L9.35302 16.9137C9.45222 16.9272 9.60776 16.9317 9.81966 16.9272C10.0316 16.9227 10.1781 16.9137 10.2592 16.9002C10.3404 16.8867 10.39 16.8777 10.408 16.8732L10.4351 16.8664L10.4689 16.8597L10.5027 16.8529L10.5054 16.8488L10.5095 16.8461L10.5135 16.8434L10.5162 16.8394L10.4892 16.8326L10.4621 16.8259L10.4351 16.8191L10.408 16.8124L10.381 16.8056C10.3629 16.8011 10.3314 16.7921 10.2863 16.7786C10.2412 16.7651 10.1195 16.7156 9.9211 16.63C9.72273 16.5445 9.56493 16.4612 9.4477 16.3802C9.33018 16.2989 9.21813 16.21 9.11226 16.1141C9.00676 16.0168 8.8909 15.8916 8.76465 15.7386C8.63842 15.5855 8.52571 15.4076 8.42651 15.205C8.32733 15.0024 8.25294 14.8088 8.20334 14.6242C8.15394 14.4407 8.12135 14.2531 8.10596 14.0637L8.08161 13.7801L8.09513 13.7828L8.10866 13.7868L8.12218 13.7936L8.13571 13.8003L8.14923 13.8071L8.16276 13.8138L8.37241 13.9084C8.51218 13.9714 8.68576 14.0254 8.89315 14.0705C9.10055 14.1155 9.22453 14.1402 9.2651 14.1447L9.32597 14.1515H9.4477L9.44501 14.1474L9.44094 14.1447L9.43688 14.142L9.43417 14.138L9.43148 14.1339L9.42741 14.1312L9.42335 14.1285L9.42065 14.1245L9.40712 14.1177L9.3936 14.111L9.39091 14.1069L9.38683 14.1042L9.38278 14.1015L9.38007 14.0975L9.36655 14.0907L9.35302 14.084L9.35033 14.0799C9.34762 14.0781 9.30885 14.0493 9.23399 13.9935C9.16005 13.9367 9.08251 13.8634 9.00135 13.7733C8.9202 13.6833 8.83904 13.5887 8.75789 13.4897C8.67659 13.3904 8.60417 13.2842 8.54148 13.1722C8.47837 13.0597 8.41163 12.9165 8.3413 12.7427C8.27187 12.5698 8.21912 12.3956 8.18305 12.22C8.14699 12.0444 8.1267 11.8711 8.12218 11.7C8.11768 11.5289 8.12218 11.3826 8.13571 11.261C8.14923 11.1394 8.17628 11.0021 8.21686 10.849C8.25744 10.696 8.31606 10.5339 8.3927 10.3628L8.50766 10.1061L8.51443 10.0859L8.52119 10.0656L8.52526 10.0629L8.52795 10.0589L8.53066 10.0548L8.53472 10.0521L8.53879 10.0548L8.54148 10.0589L8.54418 10.0629L8.54824 10.0656L8.55231 10.0683L8.555 10.0724L8.55771 10.0764L8.56177 10.0791L8.56853 10.0926L8.57529 10.1061L8.57936 10.1089L8.58206 10.1129L8.76465 10.3155C8.88638 10.4506 9.03066 10.6014 9.19748 10.768C9.3643 10.9346 9.45672 11.021 9.47475 11.0273C9.4928 11.0345 9.51533 11.0552 9.54238 11.0895C9.56943 11.1228 9.65961 11.2025 9.81289 11.3285C9.96619 11.4546 10.1668 11.6009 10.4148 11.7675C10.6628 11.9341 10.9378 12.0984 11.2399 12.2605C11.5419 12.4226 11.8666 12.5689 12.2137 12.6995C12.5609 12.8301 12.8043 12.9156 12.9441 12.9561C13.0839 12.9966 13.3228 13.0484 13.661 13.1115C13.9991 13.1745 14.2538 13.215 14.4252 13.233C14.5965 13.251 14.7137 13.2614 14.7768 13.2641L14.8715 13.2668L14.8688 13.2465L14.8647 13.2263L14.8377 13.0574C14.8197 12.9449 14.8106 12.7873 14.8106 12.5847C14.8106 12.3821 14.8264 12.1952 14.858 12.0241C14.8895 11.8531 14.9369 11.6797 15 11.5041C15.0631 11.3285 15.1249 11.1876 15.1853 11.0814C15.2466 10.976 15.3269 10.8558 15.4261 10.7207C15.5253 10.5856 15.6538 10.4461 15.8115 10.302C15.9693 10.1579 16.1497 10.0296 16.3526 9.91705C16.5555 9.8045 16.7426 9.71894 16.9139 9.66042C17.0852 9.60189 17.2295 9.56361 17.3467 9.54561C17.4639 9.5276 17.5225 9.51724 17.5225 9.51454V9.51454Z" fill="#4A3AFF"/>
</svg>
